<svg width="1200" height="630" viewBox="0 0 1200 630" fill="none" xmlns="http://www.w3.org/2000/svg">
  <!-- Background -->
  <rect width="1200" height="630" fill="#F5F5F5"/>

  <!-- Accent shapes -->
  <circle cx="1000" cy="200" r="200" fill="#BFF549" opacity="0.2"/>
  <circle cx="150" cy="450" r="130" fill="#BFF549" opacity="0.15"/>

  <!-- Keyboard being crossed out -->
  <g transform="translate(350, 220)">
    <!-- Keyboard -->
    <rect x="0" y="0" width="500" height="180" rx="15" fill="#000000" opacity="0.5"/>
    <rect x="20" y="20" width="60" height="40" rx="6" fill="#F5F5F5" opacity="0.6"/>
    <rect x="90" y="20" width="60" height="40" rx="6" fill="#F5F5F5" opacity="0.6"/>
    <rect x="160" y="20" width="60" height="40" rx="6" fill="#F5F5F5" opacity="0.6"/>
    <rect x="230" y="20" width="60" height="40" rx="6" fill="#F5F5F5" opacity="0.6"/>
    <rect x="300" y="20" width="60" height="40" rx="6" fill="#F5F5F5" opacity="0.6"/>
    <rect x="370" y="20" width="60" height="40" rx="6" fill="#F5F5F5" opacity="0.6"/>
    <rect x="440" y="20" width="40" height="40" rx="6" fill="#F5F5F5" opacity="0.6"/>

    <!-- X mark crossing out keyboard -->
    <line x1="0" y1="0" x2="500" y2="180" stroke="#BFF549" stroke-width="20" stroke-linecap="round"/>
    <line x1="500" y1="0" x2="0" y2="180" stroke="#BFF549" stroke-width="20" stroke-linecap="round"/>
  </g>

  <!-- Future symbol (arrow pointing forward) -->
  <g transform="translate(900, 400)">
    <line x1="0" y1="0" x2="150" y2="0" stroke="#000000" stroke-width="12" stroke-linecap="round"/>
    <line x1="150" y1="0" x2="120" y2="-30" stroke="#000000" stroke-width="12" stroke-linecap="round"/>
    <line x1="150" y1="0" x2="120" y2="30" stroke="#000000" stroke-width="12" stroke-linecap="round"/>
  </g>
</svg>
